# xmcd CD database file
#
# Track frame offsets:
#	150
#	18300
#	35850
#	49500
#	63750
#	77100
#	91650
#	105000
#	120448
#	136498
#	151948
#	168298
#	186448
#	206998
#	222448
#	239398
#	255148
#
# Disc length: 3585 seconds
#
# Revision: 0
# Processed by: cddbd v1.5.2PL0 Copyright (c) Steve Scherf et al.
# Submitted via: CDex 1.51
#
DISCID=d80dff11
DTITLE=รวมศิลปิน - หมอลำใจเกินร้อย
DYEAR=1900
DGENRE=Country
TTITLE0=พี่เมาวันเขาหมั้น
TTITLE1=เราหรือคือทางผ่าน
TTITLE2=ปากโกรธใจคิดถึง
TTITLE3=คนหลังยังคอย
TTITLE4=น้ำตาหล่นบนที่นอน
TTITLE5=แค่ตัวสำรอง
TTITLE6=ผิดหรือที่จะรัก
TTITLE7=หมากัด
TTITLE8=ไปกิเลี้ยงไปกินเหล้า
TTITLE9=สิ้นปีพี่เปลี่ยนใจ
TTITLE10=พบรักที่หัวลำโพง
TTITLE11=เมียป๋าเพราะซาอุ
TTITLE12=สายตาพิฆาต
TTITLE13=อีสานลำเพลิน
TTITLE14=จดหมายฉบับสุดท้าย
TTITLE15=คนขี่หลังควาย
TTITLE16=อีสานบ้านเฮา
EXTD=
EXTT0=
EXTT1=
EXTT2=
EXTT3=
EXTT4=
EXTT5=
EXTT6=
EXTT7=
EXTT8=
EXTT9=
EXTT10=
EXTT11=
EXTT12=
EXTT13=
EXTT14=
EXTT15=
EXTT16=
PLAYORDER=
